<svg width="30" height="30" fill="none" xmlns="http://www.w3.org/2000/svg"><rect width="30" height="30" rx="5" fill="#F8D830"/><path d="M10.852 14.438l.695-5.813h6.648v2.047h-4.508l-.257 2.258a3.11 3.11 0 01.734-.29c.307-.083.607-.124.899-.124 1.13 0 1.997.336 2.601 1.007.61.667.914 1.605.914 2.813 0 .73-.164 1.39-.492 1.984a3.337 3.337 0 01-1.367 1.36c-.589.317-1.284.476-2.086.476a4.69 4.69 0 01-2.008-.437c-.625-.297-1.115-.7-1.469-1.211a2.962 2.962 0 01-.523-1.742h2.64c.027.416.16.747.399.992.24.245.555.367.945.367.886 0 1.328-.656 1.328-1.969 0-1.213-.541-1.82-1.625-1.82-.614 0-1.073.198-1.375.594l-2.093-.492z" fill="#fff"/></svg>