<svg width="30" height="30" fill="none" xmlns="http://www.w3.org/2000/svg"><rect width="30" height="30" rx="5" fill="#F8D830"/><path d="M13.102 13.21h1.242c.984 0 1.476-.48 1.476-1.444 0-.375-.117-.68-.351-.914-.235-.24-.565-.36-.992-.36-.35 0-.654.102-.915.305-.255.203-.382.456-.382.758h-2.633c0-.6.166-1.133.5-1.602.333-.469.794-.833 1.383-1.094a4.728 4.728 0 011.953-.398c1.265 0 2.26.289 2.984.867.724.578 1.086 1.373 1.086 2.383 0 .49-.15.953-.453 1.39-.297.433-.732.784-1.305 1.055.604.219 1.078.552 1.422 1 .344.443.516.992.516 1.649 0 1.015-.39 1.828-1.172 2.437-.781.61-1.807.914-3.078.914-.745 0-1.438-.14-2.078-.422-.636-.286-1.117-.68-1.446-1.18a3.085 3.085 0 01-.492-1.718h2.649c0 .349.14.651.421.906.282.255.628.383 1.04.383.463 0 .833-.128 1.109-.383.276-.26.414-.591.414-.992 0-.573-.143-.98-.43-1.219-.286-.24-.682-.36-1.187-.36h-1.281v-1.96z" fill="#fff"/></svg>