<svg width="30" height="30" fill="none" xmlns="http://www.w3.org/2000/svg"><rect width="30" height="30" rx="5" fill="#F8D830"/><path d="M18.633 20h-7.938v-1.719l3.657-3.843c.9-1.027 1.351-1.842 1.351-2.446 0-.49-.107-.862-.32-1.117-.214-.255-.524-.383-.93-.383-.4 0-.726.172-.976.516-.25.338-.375.763-.375 1.273H10.46c0-.698.174-1.34.523-1.93a3.662 3.662 0 011.454-1.39c.62-.333 1.312-.5 2.078-.5 1.229 0 2.174.284 2.836.851.666.568 1 1.383 1 2.446 0 .448-.084.885-.25 1.312-.167.422-.428.867-.782 1.336-.349.464-.914 1.086-1.695 1.867l-1.469 1.696h4.477V20z" fill="#fff"/></svg>